<?xml version="1.0" encoding="utf-8"?>
<!-- Generator: Adobe Illustrator 23.0.1, SVG Export Plug-In . SVG Version: 6.00 Build 0)  -->
<svg version="1.1" xmlns="http://www.w3.org/2000/svg" xmlns:xlink="http://www.w3.org/1999/xlink" x="0px" y="0px"
	 viewBox="0 0 580 188" style="enable-background:new 0 0 580 188;" xml:space="preserve">
<style type="text/css">
	.st0{fill:#EC0061;}
</style>
<g id="Kangaroo_Global_x0D_">
	<g>
		<path d="M182.66,105.97c0,0.75-0.32,1.24-0.97,1.46c-0.52,0.17-1.9,0.26-4.12,0.26c-2.14,0-3.71-0.09-4.7-0.26
			c-0.47-0.09-0.78-0.18-0.93-0.27c-0.15-0.09-0.33-0.34-0.56-0.74c-1.27-2.33-2.53-4.66-3.78-6.99c-2.07-3.76-3.31-5.83-3.71-6.21
			c-1.88,0.68-2.82,1.17-2.82,1.46c0,1.3,0.05,3.28,0.16,5.91c0.1,2.64,0.16,4.61,0.16,5.94c0,0.54-0.23,0.84-0.7,0.91
			c-0.9,0.14-2.54,0.21-4.91,0.21c-2.26,0-3.76-0.07-4.49-0.21c-0.5-0.1-0.76-0.37-0.76-0.81c0-1.88,0.09-4.71,0.27-8.51
			c0.18-3.79,0.27-6.64,0.27-8.53c0-2.02-0.09-5.05-0.26-9.09c-0.17-4.04-0.26-7.08-0.26-9.09c0-0.38,0.18-0.57,0.55-0.57
			c0.54,0,1.35,0.03,2.44,0.08c1.09,0.05,1.9,0.08,2.44,0.08c0.56,0,1.38-0.03,2.48-0.08c1.1-0.05,1.91-0.08,2.45-0.08
			c0.3,0,0.44,0.16,0.44,0.47c0,1.29-0.07,3.23-0.2,5.83c-0.13,2.6-0.2,4.55-0.2,5.83c0,1.5,0.41,2.24,1.23,2.24
			c2.07,0,3.68-0.56,4.83-1.7c0.85-0.83,1.71-2.36,2.58-4.57c0.56-1.69,1.47-4.18,2.74-7.46c0.19-0.43,0.58-0.65,1.17-0.65
			c0.45,0,1.13,0.03,2.05,0.08s1.6,0.08,2.05,0.08c0.47,0,1.17-0.02,2.1-0.05c0.93-0.03,1.62-0.05,2.07-0.05
			c0.42,0,0.63,0.2,0.63,0.6c0,0.57-0.37,1.97-1.1,4.2c-2.16,6.58-4.64,10.68-7.44,12.32c-0.57,0.33-0.86,0.6-0.86,0.81
			c0-0.02,1.6,2.59,4.81,7.83C181.05,101.87,182.66,104.98,182.66,105.97z"/>
		<path d="M211.7,94.39c0,1.34,0.08,3.33,0.23,5.98c0.16,2.65,0.23,4.63,0.23,5.95c0,0.7-0.3,1.07-0.91,1.12
			c-2.16,0.16-4.63,0.24-7.41,0.24c-0.33,0-0.55-0.5-0.67-1.5c-0.11-1-0.25-1.51-0.4-1.53c-0.14,0.07-0.32,0.22-0.55,0.44
			c-1.95,1.97-4.04,2.95-6.26,2.95c-3.39,0-6.2-1.34-8.43-4.02c-2.1-2.5-3.16-5.5-3.16-8.98c0-4.02,1.09-7.26,3.26-9.71
			c2.26-2.54,5.36-3.81,9.29-3.81c2.73,0,4.89,0.96,6.47,2.87c0.07,0.09,0.13,0.13,0.18,0.13c0.16,0,0.33-0.42,0.54-1.27
			c0.2-0.84,0.44-1.27,0.72-1.27c0.64,0,1.87,0.18,3.68,0.55c1.72,0.35,2.96,0.64,3.71,0.89c0.26,0.1,0.39,0.24,0.39,0.42
			c0,0.07-0.03,0.25-0.08,0.55C211.98,87.54,211.7,90.87,211.7,94.39z M203.3,94.54c0-1.48-0.47-2.7-1.4-3.67
			c-0.93-0.97-2.14-1.45-3.64-1.45c-1.5,0-2.71,0.48-3.63,1.44c-0.92,0.96-1.38,2.18-1.38,3.68c0,1.41,0.49,2.62,1.46,3.63
			c0.97,1.01,2.16,1.51,3.55,1.51c1.48,0,2.69-0.48,3.63-1.45C202.83,97.27,203.3,96.04,203.3,94.54z"/>
		<path d="M242.84,106.68c0,0.47-0.24,0.74-0.73,0.81c-0.49,0.07-1.76,0.1-3.81,0.1c-2.19,0-3.55-0.05-4.07-0.16
			s-0.78-0.46-0.78-1.07c0-0.82,0.03-2.05,0.08-3.71c0.05-1.65,0.08-2.9,0.08-3.73c0-0.64-0.02-1.61-0.05-2.88
			c-0.04-1.28-0.05-2.24-0.05-2.88c0-2.38-1.04-3.58-3.11-3.58c-0.68,0-1.47,0.3-2.37,0.89c-0.97,0.66-1.46,1.31-1.46,1.96v14.09
			c0,0.57-0.27,0.9-0.81,0.96c-0.61,0.07-1.85,0.1-3.73,0.1c-2.04,0-3.36-0.05-3.97-0.16c-0.54-0.09-0.81-0.37-0.81-0.86
			c0-1.36,0.01-3.4,0.03-6.13c0.02-2.73,0.03-4.79,0.03-6.16c0-4.33-0.34-7.73-1.02-10.2c-0.04-0.16-0.05-0.29-0.05-0.39
			c0-0.28,0.13-0.47,0.39-0.57c1.1-0.12,2.56-0.31,4.38-0.57c2.77-0.54,4.32-0.81,4.67-0.81c0.19,0,0.34,0.59,0.44,1.76
			s0.25,1.76,0.44,1.76c-0.19,0,0.74-0.6,2.81-1.81c2.06-1.21,3.87-1.81,5.42-1.81c2.21,0,4.05,0.52,5.53,1.57
			c1.65,1.2,2.48,2.87,2.48,5.01v8.32c0,1.13,0.01,2.82,0.03,5.08C242.83,103.86,242.84,105.55,242.84,106.68z"/>
		<path d="M273.19,100.65c0,4.96-1.04,8.52-3.13,10.67c-2.16,2.21-5.74,3.31-10.75,3.31c-1.46,0-3.45-0.23-5.98-0.7
			c-3.22-0.59-4.83-1.29-4.83-2.09c0-0.33,0.37-2.04,1.12-5.12c0.12-0.49,0.31-0.73,0.57-0.73c0.09,0.02,0.18,0.05,0.29,0.1
			c2.68,1.32,5.16,1.98,7.44,1.98c1.25,0,2.5-0.31,3.73-0.94c1.5-0.75,2.24-1.69,2.24-2.82v-1.75c-1.77,1.67-4.05,2.51-6.84,2.51
			c-3.27,0-5.96-1.17-8.06-3.52c-2.04-2.26-3.05-5.05-3.05-8.35c0-3.32,0.97-6.08,2.92-8.27c2.04-2.28,4.7-3.42,7.99-3.42
			c2.63,0,4.64,0.94,6.03,2.82c0.28,0.38,0.47,0.57,0.57,0.57c0.16,0,0.23-0.31,0.23-0.94c0-1.39,0.16-2.09,0.47-2.09
			c0.28,0,1.78,0.14,4.51,0.43c2.73,0.29,4.15,0.45,4.25,0.48c0.3,0.1,0.44,0.33,0.44,0.68c0,1.2-0.04,2.99-0.12,5.38
			c-0.08,2.38-0.12,4.18-0.12,5.38c0,0.71,0.01,1.78,0.03,3.21C273.18,98.87,273.19,99.94,273.19,100.65z M264.16,93.42
			c0-1.27-0.42-2.37-1.27-3.3s-1.9-1.4-3.17-1.4c-1.27,0-2.33,0.47-3.17,1.42c-0.84,0.95-1.27,2.06-1.27,3.33s0.43,2.37,1.29,3.29
			c0.86,0.92,1.91,1.38,3.14,1.38c1.27,0,2.33-0.47,3.17-1.41S264.16,94.69,264.16,93.42z"/>
		<path d="M303.93,94.39c0,1.34,0.08,3.33,0.23,5.98c0.16,2.65,0.24,4.63,0.24,5.95c0,0.7-0.3,1.07-0.91,1.12
			c-2.16,0.16-4.63,0.24-7.41,0.24c-0.33,0-0.55-0.5-0.67-1.5c-0.11-1-0.25-1.51-0.4-1.53c-0.14,0.07-0.32,0.22-0.55,0.44
			c-1.95,1.97-4.04,2.95-6.26,2.95c-3.39,0-6.2-1.34-8.43-4.02c-2.1-2.5-3.16-5.5-3.16-8.98c0-4.02,1.09-7.26,3.26-9.71
			c2.26-2.54,5.36-3.81,9.29-3.81c2.73,0,4.89,0.96,6.47,2.87c0.07,0.09,0.13,0.13,0.18,0.13c0.16,0,0.33-0.42,0.54-1.27
			s0.44-1.27,0.72-1.27c0.64,0,1.87,0.18,3.68,0.55c1.72,0.35,2.96,0.64,3.71,0.89c0.26,0.1,0.39,0.24,0.39,0.42
			c0,0.07-0.03,0.25-0.08,0.55C304.21,87.54,303.93,90.87,303.93,94.39z M295.52,94.54c0-1.48-0.46-2.7-1.4-3.67
			c-0.93-0.97-2.14-1.45-3.64-1.45c-1.5,0-2.71,0.48-3.63,1.44c-0.92,0.96-1.38,2.18-1.38,3.68c0,1.41,0.49,2.62,1.46,3.63
			c0.97,1.01,2.16,1.51,3.55,1.51c1.48,0,2.69-0.48,3.63-1.45C295.05,97.27,295.52,96.04,295.52,94.54z"/>
		<path d="M326.42,91.18c0,0.68-0.38,1.02-1.12,1.02c-0.33,0-0.81-0.02-1.45-0.07c-0.63-0.04-1.11-0.06-1.42-0.06
			c-1.44,0-2.43,0.23-2.95,0.68c-0.52,0.45-0.78,1.37-0.78,2.74c0,0.75,0.01,1.88,0.04,3.41s0.04,2.66,0.04,3.41
			c0,0.5,0.03,1.26,0.1,2.26c0.07,1,0.1,1.74,0.1,2.23c0,0.42-0.29,0.65-0.86,0.7c-0.83,0.07-2.11,0.1-3.84,0.1
			c-1.65,0-2.98-0.05-3.97-0.16c-0.57-0.07-0.86-0.36-0.86-0.86c0-1.39,0.01-3.47,0.03-6.25c0.02-2.77,0.03-4.86,0.03-6.25
			c0-4.09-0.37-7.45-1.12-10.1c-0.04-0.16-0.05-0.29-0.05-0.39c0-0.26,0.13-0.44,0.39-0.52c0.96-0.1,2.36-0.3,4.2-0.57
			c2.75-0.54,4.17-0.81,4.25-0.81c0.31,0,0.51,0.55,0.6,1.64c0.09,1.1,0.24,1.64,0.47,1.64c-0.24,0,0.47-0.46,2.14-1.37
			c1.67-0.91,3.28-1.37,4.83-1.37c0.97,0,1.46,0.21,1.46,0.63c0,0.5-0.05,1.22-0.16,2.14c-0.1,0.99-0.17,1.71-0.18,2.14
			c0,0.5,0.01,1.17,0.03,2.01C326.41,90.17,326.42,90.85,326.42,91.18z"/>
		<path d="M354.58,94.6c0,3.97-1.21,7.19-3.64,9.66c-2.43,2.47-5.62,3.71-9.56,3.71c-3.83,0-6.98-1.22-9.45-3.65
			c-2.47-2.43-3.71-5.57-3.71-9.39c0-4.04,1.18-7.31,3.55-9.83s5.57-3.77,9.6-3.77c3.93,0,7.12,1.23,9.55,3.69
			C353.36,87.47,354.58,90.66,354.58,94.6z M346.02,94.6c0-1.38-0.43-2.59-1.28-3.64c-0.85-1.05-1.96-1.58-3.31-1.58
			c-1.37,0-2.5,0.54-3.39,1.62c-0.84,1.01-1.25,2.21-1.25,3.6c0,1.41,0.42,2.62,1.25,3.63c0.89,1.08,2.02,1.62,3.39,1.62
			c1.36,0,2.48-0.54,3.37-1.62C345.61,97.21,346.02,96,346.02,94.6z"/>
		<path d="M382.84,94.6c0,3.97-1.21,7.19-3.64,9.66c-2.43,2.47-5.62,3.71-9.56,3.71c-3.83,0-6.98-1.22-9.45-3.65
			c-2.47-2.43-3.71-5.57-3.71-9.39c0-4.04,1.18-7.31,3.55-9.83s5.57-3.77,9.6-3.77c3.93,0,7.12,1.23,9.55,3.69
			C381.63,87.47,382.84,90.66,382.84,94.6z M374.28,94.6c0-1.38-0.43-2.59-1.28-3.64c-0.85-1.05-1.96-1.58-3.31-1.58
			c-1.37,0-2.5,0.54-3.39,1.62c-0.84,1.01-1.25,2.21-1.25,3.6c0,1.41,0.42,2.62,1.25,3.63c0.89,1.08,2.02,1.62,3.39,1.62
			c1.36,0,2.48-0.54,3.37-1.62C373.87,97.21,374.28,96,374.28,94.6z"/>
		<path d="M433.89,106.6c0.03,0.47-0.21,0.7-0.73,0.7c-0.33,0-1.28-0.19-2.86-0.57c-1.57-0.38-2.54-0.64-2.91-0.78
			c-3.64,1.43-7.13,2.14-10.46,2.14c-5.38,0-9.79-1.79-13.23-5.38c-3.41-3.53-5.11-7.99-5.11-13.39c0-5.52,1.65-10.09,4.96-13.73
			c3.41-3.76,7.84-5.64,13.28-5.64c2.64,0,5.13,0.5,7.46,1.51c2.52,1.11,4.51,2.68,5.95,4.7c0.29,0.42,0.44,0.71,0.44,0.89
			c0,0.56-0.78,1.81-2.34,3.75s-2.56,2.91-3.01,2.91c-0.1,0-0.5-0.36-1.2-1.07c-0.85-0.85-1.72-1.51-2.61-1.98
			c-1.32-0.71-2.78-1.07-4.38-1.07c-2.61,0-4.68,0.97-6.21,2.92c-1.43,1.79-2.14,4.03-2.14,6.71c0,2.84,0.74,5.08,2.22,6.73
			c1.53,1.71,3.7,2.56,6.5,2.56c1.77,0,3.76-0.44,5.95-1.33c-0.05-0.57-0.21-2.04-0.47-4.38c-0.23-1.81-0.34-3.27-0.34-4.38
			c0-0.33,0.11-0.53,0.34-0.6c0.09-0.03,0.23-0.05,0.42-0.05c0.5,0,1.27,0.05,2.28,0.14c1.02,0.1,1.79,0.14,2.31,0.14
			c0.56,0,1.39-0.04,2.51-0.12c1.11-0.08,1.95-0.12,2.5-0.12c0.43,0,0.65,0.29,0.65,0.86c0,0.83-0.05,2.1-0.14,3.78
			c-0.1,1.69-0.14,2.95-0.14,3.78c0,2.24,0.17,5.6,0.5,10.07L433.89,106.6z"/>
		<path d="M446.86,91.72c0,4.75,0.02,8.39,0.05,10.93c0,0.4,0.03,1.09,0.08,2.06c0.05,0.89,0.08,1.57,0.08,2.06
			c0,0.37-0.22,0.58-0.65,0.65c-0.78,0.14-2.19,0.21-4.23,0.21c-2.09,0-3.42-0.07-3.99-0.21c-0.38-0.09-0.6-0.32-0.65-0.71
			c0-0.05,0-0.43,0-1.12c0-1.55,0.02-3.87,0.05-6.95c0.03-3.09,0.05-5.4,0.05-6.93c0-7.31,0.01-10.64,0.03-10
			c-0.05-3.84-0.27-7.16-0.65-9.94c-0.04-0.19-0.05-0.34-0.05-0.44c0-0.38,0.23-0.57,0.68-0.57h9.32c0.44,0,0.64,0.18,0.6,0.55
			l-0.03,0.47C447.08,79.3,446.86,85.95,446.86,91.72z"/>
		<path d="M476.74,94.6c0,3.97-1.21,7.19-3.64,9.66c-2.43,2.47-5.62,3.71-9.56,3.71c-3.83,0-6.98-1.22-9.45-3.65
			c-2.47-2.43-3.71-5.57-3.71-9.39c0-4.04,1.18-7.31,3.55-9.83s5.57-3.77,9.6-3.77c3.93,0,7.12,1.23,9.55,3.69
			C475.52,87.47,476.74,90.66,476.74,94.6z M468.18,94.6c0-1.38-0.43-2.59-1.28-3.64c-0.85-1.05-1.96-1.58-3.31-1.58
			c-1.37,0-2.5,0.54-3.39,1.62c-0.84,1.01-1.25,2.21-1.25,3.6c0,1.41,0.42,2.62,1.25,3.63c0.89,1.08,2.02,1.62,3.39,1.62
			c1.36,0,2.48-0.54,3.37-1.62C467.77,97.21,468.18,96,468.18,94.6z"/>
		<path d="M508.18,94.67c0,3.65-1.04,6.71-3.13,9.16c-2.23,2.61-5.13,3.92-8.72,3.92c-2.61,0-4.71-0.75-6.32-2.24
			c-0.12-0.1-0.23-0.16-0.31-0.16c-0.17,0-0.33,0.32-0.48,0.97c-0.15,0.64-0.33,1-0.54,1.07c-0.3,0.09-2.78,0.13-7.44,0.13
			c-1.1,0-1.64-0.2-1.64-0.6c0-0.05,0.02-0.18,0.05-0.39c0.35-2.77,0.52-8.04,0.52-15.81c0-7.43-0.26-13.89-0.78-19.39l-0.03-0.29
			c0-0.28,0.27-0.43,0.81-0.47c0.38-0.02,1.9-0.15,4.54-0.39c1.86-0.17,3.38-0.26,4.54-0.26c0.33,0,0.5,0.29,0.5,0.86
			c0,0.68-0.04,1.57-0.13,2.69c-0.1,1.37-0.17,2.28-0.18,2.71c-0.09,1.72-0.13,4.07-0.13,7.05c0,0.54,0.14,0.81,0.42,0.81
			c0.14,0,0.27-0.07,0.39-0.21c1.57-1.67,3.62-2.51,6.16-2.51c3.81,0,6.79,1.3,8.93,3.89C507.19,87.6,508.18,90.76,508.18,94.67z
			 M498.74,94.39c0-1.44-0.44-2.67-1.33-3.67c-0.89-1-2.04-1.5-3.47-1.5c-1.46,0-2.61,0.5-3.46,1.5c-0.84,1-1.27,2.24-1.27,3.72
			c0,1.53,0.41,2.77,1.23,3.71c0.87,0.99,2.05,1.49,3.55,1.49c1.48,0,2.65-0.51,3.52-1.54C498.33,97.14,498.74,95.9,498.74,94.39z"
			/>
		<path d="M537.6,94.39c0,1.34,0.08,3.33,0.23,5.98c0.16,2.65,0.24,4.63,0.24,5.95c0,0.7-0.3,1.07-0.91,1.12
			c-2.16,0.16-4.63,0.24-7.41,0.24c-0.33,0-0.55-0.5-0.67-1.5c-0.11-1-0.25-1.51-0.4-1.53c-0.14,0.07-0.32,0.22-0.55,0.44
			c-1.95,1.97-4.04,2.95-6.26,2.95c-3.39,0-6.2-1.34-8.43-4.02c-2.11-2.5-3.16-5.5-3.16-8.98c0-4.02,1.09-7.26,3.26-9.71
			c2.26-2.54,5.36-3.81,9.29-3.81c2.73,0,4.89,0.96,6.47,2.87c0.07,0.09,0.13,0.13,0.18,0.13c0.16,0,0.33-0.42,0.54-1.27
			c0.2-0.84,0.44-1.27,0.72-1.27c0.64,0,1.87,0.18,3.68,0.55c1.72,0.35,2.96,0.64,3.71,0.89c0.26,0.1,0.39,0.24,0.39,0.42
			c0,0.07-0.03,0.25-0.08,0.55C537.87,87.54,537.6,90.87,537.6,94.39z M529.19,94.54c0-1.48-0.47-2.7-1.4-3.67
			c-0.93-0.97-2.14-1.45-3.64-1.45c-1.5,0-2.71,0.48-3.63,1.44c-0.92,0.96-1.38,2.18-1.38,3.68c0,1.41,0.49,2.62,1.46,3.63
			s2.16,1.51,3.55,1.51c1.48,0,2.69-0.48,3.63-1.45C528.72,97.27,529.19,96.04,529.19,94.54z"/>
		<path d="M552.29,91.72c0,4.75,0.02,8.39,0.05,10.93c0,0.4,0.03,1.09,0.08,2.06c0.05,0.89,0.08,1.57,0.08,2.06
			c0,0.37-0.22,0.58-0.65,0.65c-0.78,0.14-2.19,0.21-4.23,0.21c-2.09,0-3.42-0.07-3.99-0.21c-0.38-0.09-0.6-0.32-0.65-0.71
			c0-0.05,0-0.43,0-1.12c0-1.55,0.02-3.87,0.05-6.95c0.03-3.09,0.05-5.4,0.05-6.93c0-7.31,0.01-10.64,0.03-10
			c-0.05-3.84-0.27-7.16-0.65-9.94c-0.04-0.19-0.05-0.34-0.05-0.44c0-0.38,0.23-0.57,0.68-0.57h9.32c0.44,0,0.64,0.18,0.6,0.55
			l-0.03,0.47C552.51,79.3,552.29,85.95,552.29,91.72z"/>
	</g>
</g>
<g id="TM">
	<g>
		<path d="M562.27,72.75c0,0.07-0.04,0.1-0.11,0.1c-0.12,0-0.62-0.02-1.47-0.07c-0.02,0.83-0.03,1.4-0.03,1.73
			c0,0.39,0.02,0.96,0.05,1.74c0.03,0.77,0.05,1.35,0.05,1.74c0,0.06-0.01,0.1-0.04,0.12c-0.01,0.01-0.06,0.01-0.14,0.02
			c-0.2,0.03-0.48,0.04-0.86,0.04c-0.42,0-0.72-0.01-0.89-0.04c-0.09-0.02-0.14-0.07-0.14-0.15c0-0.38,0.02-0.96,0.05-1.73
			c0.03-0.77,0.05-1.35,0.05-1.73c0-0.25-0.01-0.82-0.04-1.7c-0.65,0.07-1.17,0.1-1.56,0.1c-0.05,0-0.08-0.02-0.08-0.05
			c0-0.04,0.02-0.17,0.07-0.38c0.05-0.23,0.08-0.37,0.09-0.42c0.01-0.15,0.02-0.31,0.04-0.46c0.02-0.24,0.06-0.37,0.12-0.37
			c0.01,0,0.03,0,0.07,0c0.53,0.07,1.31,0.1,2.34,0.1c0.29,0,0.83-0.03,1.62-0.09c0.42-0.03,0.64-0.05,0.64-0.05
			c0.07,0,0.1,0,0.11,0.01c0.01,0.01,0.02,0.04,0.02,0.1c0,0.09,0,0.21-0.01,0.37c-0.01,0.17-0.01,0.3-0.01,0.37
			c0,0.08,0.01,0.2,0.03,0.36C562.26,72.56,562.27,72.67,562.27,72.75z"/>
		<path d="M570.09,77.97c0,0.1-0.05,0.15-0.14,0.15h-1.73c-0.09,0-0.14-0.06-0.14-0.17c0-0.33,0.01-0.82,0.04-1.48
			c0.02-0.66,0.04-1.15,0.04-1.48c0-0.09-0.01-0.15-0.04-0.15c-0.04,0.02-0.25,0.52-0.66,1.51c-0.24,0.58-0.47,1.16-0.71,1.74
			c-0.03,0.07-0.07,0.12-0.12,0.13c-0.02,0-0.08,0-0.2,0c-0.17,0-0.27-0.03-0.3-0.1c-0.18-0.36-0.41-0.88-0.69-1.57
			c-0.31-0.72-0.54-1.25-0.69-1.57c-0.01-0.02-0.02-0.03-0.04-0.05c-0.02,0.03-0.03,0.08-0.03,0.14c0,0.32,0.01,0.8,0.02,1.44
			c0.02,0.64,0.02,1.12,0.02,1.44c0,0.11-0.05,0.17-0.14,0.17h-1.63c-0.07,0-0.1-0.01-0.12-0.03c-0.02-0.02-0.02-0.06-0.02-0.11
			c0-0.36,0.02-0.89,0.05-1.6c0.03-0.71,0.05-1.25,0.05-1.6c0-0.38-0.02-1.09-0.05-2.13c0-0.27-0.02-0.67-0.04-1.21l0-0.08
			c0-0.07,0.07-0.1,0.21-0.1c0.18,0,0.45-0.01,0.81-0.02c0.36-0.01,0.63-0.02,0.81-0.02c0.04,0,0.09,0.07,0.15,0.21l1.43,3.14
			c0.1,0.21,0.19,0.32,0.25,0.32c0.04,0,0.11-0.12,0.23-0.37c0.33-0.68,0.82-1.72,1.46-3.1c0.06-0.13,0.12-0.19,0.18-0.19
			c0.09,0,0.24,0,0.43,0.01c0.19,0.01,0.34,0.01,0.43,0.01c0.08,0,0.21-0.01,0.37-0.02c0.17-0.02,0.29-0.02,0.37-0.02
			c0.1,0,0.15,0.04,0.15,0.12c0,0.38-0.01,0.96-0.04,1.72c-0.03,0.77-0.04,1.34-0.04,1.73c0,0.36,0.02,0.89,0.04,1.6
			C570.08,77.08,570.09,77.62,570.09,77.97z"/>
	</g>
</g>
<g id="Layer_1_xA0_Image_1_">
	<g>
		<path class="st0" d="M11.14,104.08c0,0,0.05-0.01,0.12-0.02c0,0,0,0,0,0c0,0,0,0,0,0c0,0,0,0,0,0c0,0,0,0,0,0l0,0
			c4.89-0.92,10.43-1.76,24.48-3.33c1.12-0.13,1.69-0.19,1.89-0.21c3.81-0.4,10.07-1.05,16.62-0.74c3.44,0.17,8.09,0.39,13.89,2.1
			c4.28,1.27,7.41,2.82,13.15,5.68c3.25,1.62,3.41,1.82,9.05,4.84c7.5,4.01,12.23,6.53,18.52,9.26c4.29,1.86,6.44,2.8,9.36,3.68
			c5.37,1.62,10.08,2.25,16.31,3.05c3.25,0.42,5.94,0.68,7.79,0.84c-1.53,2.17-3.31,4.43-5.37,6.73
			c-6.28,7.02-12.3,11.15-14.2,12.41c-2.79,1.85-9.45,5.98-18.95,8.86c-3.52,1.07-9.12,2.48-16.14,2.98
			c-6.11,0.44-11.19,0.04-14.72-0.42c-6.17-0.8-11.02-2.22-13.93-3.2c-4.17-1.4-11.31-4.23-19.02-9.71
			c-1.25-0.89-13.34-9.65-21.15-23.28c0,0-4.15-7.24-6.62-15.4c-0.33-1.1-0.56-1.96-0.56-1.96
			C11.68,106.28,11.57,105.86,11.14,104.08z"/>
		<path class="st0" d="M96.24,15.09c0.13,1.39,0.19,3.33-0.11,5.63c-0.15,1.16-0.74,5.08-3.21,9.52c-1.97,3.55-4.19,5.73-7.26,8.73
			c-1.4,1.37-4.41,4.19-6.73,6.31c-0.83,0.76-2.2,2.01-3.73,3.95c-1.13,1.43-2.16,3.1-2.16,3.1c-0.14,0.23-0.26,0.42-0.34,0.55
			c0.13,0.14,0.32,0.33,0.57,0.55c0.47,0.42,0.88,0.69,1.07,0.82c3.35,2.2,5.72,3.54,5.72,3.54c4.1,2.31,3.39,1.96,4.38,2.49
			c2.84,1.51,4.99,2.46,5.68,2.76c2.59,1.13,3.89,1.69,5.6,2.05c2.63,0.55,4.4,0.36,5.01,0.28c0.59-0.08,1.21-0.24,2.45-0.55
			c1.54-0.39,3.13-0.8,5.01-1.54c1.47-0.58,2.48-1.11,3.59-1.7c1.4-0.74,3.31-1.75,5.56-3.43c1.95-1.46,3.29-2.76,4.38-3.83
			c0.51-0.5,1.8-1.78,3.39-3.67c2.57-3.04,4.21-5.58,6.39-9c0.89-1.39,2.08-3.31,3.43-5.64c-1.02-1.07-2.38-2.42-4.06-3.91
			c-0.43-0.38-2.37-2.09-5.29-4.22c-1.42-1.04-3.74-2.73-6.79-4.5c-2.61-1.52-6.3-3.4-11.01-5.05"/>
		<path class="st0" d="M9.35,84.14c0.04-1.73,0.15-3.92,0.43-6.43c0.27-2.35,0.83-6.17,2.09-10.69c0.64-2.28,2.54-8.64,6.79-16.1
			c3.31-5.81,6.68-9.9,8.48-11.95c1.07-1.22,3.84-4.31,7.97-7.79c7.06-5.95,13.4-9.13,15.41-10.1c1.8-0.87,5.88-2.74,11.36-4.31
			c1.31-0.37,4.79-1.33,9.42-2.05c0.44-0.07,3.06-0.47,5.84-0.68c6.55-0.51,12.8,0.12,17.41,0.84"/>
	</g>
</g>
</svg>
